<mxfile host="app.diagrams.net" modified="2021-04-21T06:22:43.289Z" agent="5.0 (Macintosh; Intel Mac OS X 11_1_0) AppleWebKit/537.36 (KHTML, like Gecko) Chrome/89.0.4389.90 Safari/537.36" etag="jt87iefMJKDWDoN180Wi" version="14.6.3" type="github">
  <diagram id="I3vccMdY_nkcUTCb7B2b" name="Page-1">
    <mxGraphModel dx="946" dy="614" grid="1" gridSize="10" guides="1" tooltips="1" connect="1" arrows="1" fold="1" page="1" pageScale="1" pageWidth="850" pageHeight="1100" math="0" shadow="0">
      <root>
        <mxCell id="0" />
        <mxCell id="1" parent="0" />
        <mxCell id="gMmhiVV--7vjr5uhKCyz-1" value="" style="shape=cylinder3;whiteSpace=wrap;html=1;boundedLbl=1;backgroundOutline=1;size=15;" vertex="1" parent="1">
          <mxGeometry x="770" y="290" width="60" height="80" as="geometry" />
        </mxCell>
        <mxCell id="gMmhiVV--7vjr5uhKCyz-2" value="" style="whiteSpace=wrap;html=1;aspect=fixed;dashed=1;fillColor=none;" vertex="1" parent="1">
          <mxGeometry x="750" y="280" width="100" height="100" as="geometry" />
        </mxCell>
        <mxCell id="gMmhiVV--7vjr5uhKCyz-4" value="DB" style="text;html=1;strokeColor=none;fillColor=none;align=center;verticalAlign=middle;whiteSpace=wrap;rounded=0;dashed=1;" vertex="1" parent="1">
          <mxGeometry x="780" y="380" width="40" height="20" as="geometry" />
        </mxCell>
        <mxCell id="gMmhiVV--7vjr5uhKCyz-5" value="" style="rounded=0;whiteSpace=wrap;html=1;fillColor=none;direction=south;" vertex="1" parent="1">
          <mxGeometry x="583" y="270" width="80" height="120" as="geometry" />
        </mxCell>
        <mxCell id="gMmhiVV--7vjr5uhKCyz-6" value="" style="rounded=0;whiteSpace=wrap;html=1;fillColor=none;dashed=1;direction=south;" vertex="1" parent="1">
          <mxGeometry x="568" y="215" width="110" height="230" as="geometry" />
        </mxCell>
        <mxCell id="gMmhiVV--7vjr5uhKCyz-7" value="BookSlot&lt;br&gt;Internal service" style="text;html=1;strokeColor=none;fillColor=none;align=center;verticalAlign=middle;whiteSpace=wrap;rounded=0;dashed=1;" vertex="1" parent="1">
          <mxGeometry x="573" y="400" width="100" height="30" as="geometry" />
        </mxCell>
        <mxCell id="gMmhiVV--7vjr5uhKCyz-8" value="CVR Vpn" style="text;html=1;strokeColor=none;fillColor=none;align=center;verticalAlign=middle;whiteSpace=wrap;rounded=0;dashed=1;" vertex="1" parent="1">
          <mxGeometry x="568" y="190" width="110" height="20" as="geometry" />
        </mxCell>
        <mxCell id="gMmhiVV--7vjr5uhKCyz-9" value="CVR Vpn" style="text;html=1;strokeColor=none;fillColor=none;align=center;verticalAlign=middle;whiteSpace=wrap;rounded=0;dashed=1;" vertex="1" parent="1">
          <mxGeometry x="745" y="260" width="110" height="20" as="geometry" />
        </mxCell>
      </root>
    </mxGraphModel>
  </diagram>
</mxfile>
